<svg xmlns="http://www.w3.org/2000/svg" xmlns:xlink="http://www.w3.org/1999/xlink" width="611" height="582" viewBox="0 0 611 582">
 <defs>
   <filter id="card-shadow" x="-40%" y="-40%" width="180%" height="180%">
     <feDropShadow dx="0" dy="3" stdDeviation="5" flood-color="rgba(15, 23, 42, 0.18)"/>
   </filter>
 </defs>
 <rect x="0" y="0" width="611" height="582" fill="#f8fafc"/>
 <text x="32" y="58" font-family='"Segoe UI", "Helvetica Neue", Arial, sans-serif' font-size="24" font-weight="700" fill="#0f172a">Order placement -- sequence</text>
 <g transform="translate(32, 88)">
 <rect x="144.5" y="206" width="386.5" height="116" rx="6" fill="none" stroke="#e2e8f0" stroke-dasharray="6 4"/>
<rect x="144.5" y="206" width="254" height="24" fill="#ffffff" stroke="#e2e8f0"/>
<text x="152.5" y="222" font-family='"Segoe UI", "Helvetica Neue", Arial, sans-serif' font-size="12" fill="#0f172a"><tspan font-weight="700">alt</tspan> [payment approved / declined]</text>
<line x1="144.5" y1="274" x2="531" y2="274" stroke="#e2e8f0"/>
<rect x="144.5" y="338" width="386.5" height="84" rx="6" fill="none" stroke="#e2e8f0" stroke-dasharray="6 4"/>
<rect x="144.5" y="338" width="212" height="24" fill="#ffffff" stroke="#e2e8f0"/>
<text x="152.5" y="354" font-family='"Segoe UI", "Helvetica Neue", Arial, sans-serif' font-size="12" fill="#0f172a"><tspan font-weight="700">loop</tspan> [until order is saved]</text>
<line x1="144.5" y1="406" x2="531" y2="406" stroke="#e2e8f0"/>
 <line x1="24" y1="94" x2="24" y2="462" stroke="#94a3b8" stroke-width="1" stroke-dasharray="4 4"/>
<line x1="168.5" y1="56" x2="168.5" y2="462" stroke="#94a3b8" stroke-width="1" stroke-dasharray="4 4"/>
<line x1="350" y1="56" x2="350" y2="462" stroke="#94a3b8" stroke-width="1" stroke-dasharray="4 4"/>
<line x1="507" y1="56" x2="507" y2="462" stroke="#94a3b8" stroke-width="1" stroke-dasharray="4 4"/>
 <rect x="163.5" y="242" width="10" height="64" fill="#ffffff" stroke="#94a3b8" stroke-width="1.5"/>
 <path d="M24,142 L158.5,142" fill="none" stroke="#94a3b8" stroke-width="1.5"/><polygon points="0,0 -10,-4 -10,4" fill="#94a3b8" stroke="#94a3b8" stroke-width="2" transform="translate(168.5 142) rotate(0)"/><rect x="32.75" y="125" width="127" height="16" fill="#f8fafc"/><text x="96.25" y="136" text-anchor="middle" font-family='"Segoe UI", "Helvetica Neue", Arial, sans-serif' font-size="12" fill="#0f172a">placeOrder(items)</text>
<path d="M168.5,174 L208.5,174 L208.5,194 L178.5,194" fill="none" stroke="#94a3b8" stroke-width="1.5"/><polygon points="0,0 -10,-4 -10,4" fill="#94a3b8" stroke="#94a3b8" stroke-width="2" transform="translate(168.5 194) rotate(180)"/><rect x="216.5" y="177" width="106" height="16" fill="#f8fafc"/><text x="216.5" y="188" text-anchor="start" font-family='"Segoe UI", "Helvetica Neue", Arial, sans-serif' font-size="12" fill="#0f172a">validate stock</text>
<path d="M168.5,242 L340,242" fill="none" stroke="#94a3b8" stroke-width="1.5"/><polygon points="0,0 -10,-4 -10,4" fill="#94a3b8" stroke="#94a3b8" stroke-width="2" transform="translate(350 242) rotate(0)"/><rect x="206.25" y="225" width="106" height="16" fill="#f8fafc"/><text x="259.25" y="236" text-anchor="middle" font-family='"Segoe UI", "Helvetica Neue", Arial, sans-serif' font-size="12" fill="#0f172a">charge(amount)</text>
<path d="M350,274 L497,274" fill="none" stroke="#94a3b8" stroke-width="1.5"/><polygon points="0,0 -10,-4 -10,4" fill="none" stroke="#94a3b8" stroke-width="2" transform="translate(507 274) rotate(0)"/><rect x="368.5" y="257" width="120" height="16" fill="#f8fafc"/><text x="428.5" y="268" text-anchor="middle" font-family='"Segoe UI", "Helvetica Neue", Arial, sans-serif' font-size="12" fill="#0f172a">reserve(orderId)</text>
<path d="M350,306 L178.5,306" fill="none" stroke="#94a3b8" stroke-width="1.5" stroke-dasharray="7 5"/><polygon points="0,0 -10,-4 -10,4" fill="none" stroke="#94a3b8" stroke-width="2" transform="translate(168.5 306) rotate(180)"/><rect x="230.75" y="289" width="57" height="16" fill="#f8fafc"/><text x="259.25" y="300" text-anchor="middle" font-family='"Segoe UI", "Helvetica Neue", Arial, sans-serif' font-size="12" fill="#0f172a">receipt</text>
<path d="M168.5,374 L497,374" fill="none" stroke="#94a3b8" stroke-width="1.5"/><polygon points="0,0 -10,-4 -10,4" fill="#94a3b8" stroke="#94a3b8" stroke-width="2" transform="translate(507 374) rotate(0)"/><rect x="295.25" y="357" width="85" height="16" fill="#f8fafc"/><text x="337.75" y="368" text-anchor="middle" font-family='"Segoe UI", "Helvetica Neue", Arial, sans-serif' font-size="12" fill="#0f172a">save(order)</text>
<path d="M507,406 L178.5,406" fill="none" stroke="#94a3b8" stroke-width="1.5" stroke-dasharray="7 5"/><polygon points="0,0 -10,-4 -10,4" fill="none" stroke="#94a3b8" stroke-width="2" transform="translate(168.5 406) rotate(180)"/><rect x="309.25" y="389" width="57" height="16" fill="#f8fafc"/><text x="337.75" y="400" text-anchor="middle" font-family='"Segoe UI", "Helvetica Neue", Arial, sans-serif' font-size="12" fill="#0f172a">orderId</text>
<path d="M168.5,438 L34,438" fill="none" stroke="#94a3b8" stroke-width="1.5" stroke-dasharray="7 5"/><polygon points="0,0 -10,-4 -10,4" fill="none" stroke="#94a3b8" stroke-width="2" transform="translate(24 438) rotate(180)"/><rect x="50.25" y="421" width="92" height="16" fill="#f8fafc"/><text x="96.25" y="432" text-anchor="middle" font-family='"Segoe UI", "Helvetica Neue", Arial, sans-serif' font-size="12" fill="#0f172a">confirmation</text>
 <circle cx="24" cy="27" r="7" fill="none" stroke="#94a3b8" stroke-width="2"/>
<line x1="24" y1="34" x2="24" y2="54" stroke="#94a3b8" stroke-width="2"/>
<line x1="12" y1="40" x2="36" y2="40" stroke="#94a3b8" stroke-width="2"/>
<line x1="24" y1="54" x2="14" y2="70" stroke="#94a3b8" stroke-width="2"/>
<line x1="24" y1="54" x2="34" y2="70" stroke="#94a3b8" stroke-width="2"/>
<text x="24" y="90" text-anchor="middle" font-family='"Segoe UI", "Helvetica Neue", Arial, sans-serif' font-size="12" fill="#0f172a">User</text>
<text x="168.5" y="14" text-anchor="middle" font-family='"Segoe UI", "Helvetica Neue", Arial, sans-serif' font-size="11" font-style="italic" fill="#64748b">«control»</text>
<rect x="104" y="20" width="129" height="36" rx="8" fill="#ffffff" stroke="#e2e8f0" stroke-width="1.5" filter="url(#card-shadow)"/>
<text x="168.5" y="42" text-anchor="middle" font-family='"Segoe UI", "Helvetica Neue", Arial, sans-serif' font-size="13" font-weight="600" fill="#0f172a">OrderController</text>
<text x="350" y="14" text-anchor="middle" font-family='"Segoe UI", "Helvetica Neue", Arial, sans-serif' font-size="11" font-style="italic" fill="#64748b">«control»</text>
<rect x="289" y="20" width="122" height="36" rx="8" fill="#ffffff" stroke="#e2e8f0" stroke-width="1.5" filter="url(#card-shadow)"/>
<text x="350" y="42" text-anchor="middle" font-family='"Segoe UI", "Helvetica Neue", Arial, sans-serif' font-size="13" font-weight="600" fill="#0f172a">PaymentGateway</text>
<text x="507" y="14" text-anchor="middle" font-family='"Segoe UI", "Helvetica Neue", Arial, sans-serif' font-size="11" font-style="italic" fill="#64748b">«entity»</text>
<rect x="467" y="20" width="80" height="36" rx="8" fill="#ffffff" stroke="#e2e8f0" stroke-width="1.5" filter="url(#card-shadow)"/>
<text x="507" y="42" text-anchor="middle" font-family='"Segoe UI", "Helvetica Neue", Arial, sans-serif' font-size="13" font-weight="600" fill="#0f172a">Database</text>
 </g>
 </svg>