<svg xmlns="http://www.w3.org/2000/svg" xmlns:xlink="http://www.w3.org/1999/xlink" width="2890.8" height="604" viewBox="0 0 2890.8 604">
<defs>
  <filter id="card-shadow" x="-40%" y="-40%" width="180%" height="180%">
    <feDropShadow dx="0" dy="3" stdDeviation="5" flood-color="rgba(15, 23, 42, 0.18)"/>
  </filter>
</defs>
<rect x="0" y="0" width="2890.8" height="604" fill="#f8fafc"/>
<text x="32" y="58" font-family='"Segoe UI", "Helvetica Neue", Arial, sans-serif' font-size="24" font-weight="700" fill="#0f172a">Stress -- all cardinalities</text>
<g transform="translate(32, 88)">
<path d="M208.82352941176475,114 L208.82352941176475,146 L2574.8,146 L2574.8,410" fill="none" stroke="#94a3b8" stroke-width="2" stroke-dasharray="7 5"/><g transform="translate(208.82352941176475 104) rotate(90)"><line x1="10" y1="-6" x2="10" y2="6" fill="none" stroke="#94a3b8" stroke-width="2" stroke-linecap="round"/></g><g transform="translate(2574.8 420) rotate(90)"><line x1="10" y1="-6" x2="10" y2="6" fill="none" stroke="#94a3b8" stroke-width="2" stroke-linecap="round"/></g><rect x="2495" y="308" width="67.80000000000001" height="16" rx="4" fill="rgba(248, 250, 252, 0.85)" stroke="#e2e8f0"/><text x="2528.9" y="319.5" text-anchor="middle" font-family='"Segoe UI", "Helvetica Neue", Arial, sans-serif' font-size="10" fill="#475569">one x one</text>
<path d="M215.88235294117652,114 L215.88235294117652,136 L2742.8,136 L2742.8,400" fill="none" stroke="#94a3b8" stroke-width="2" stroke-dasharray="7 5"/><g transform="translate(215.88235294117652 104) rotate(90)"><line x1="10" y1="-6" x2="10" y2="6" fill="none" stroke="#94a3b8" stroke-width="2" stroke-linecap="round"/></g><g transform="translate(2742.8 420) rotate(90)"><line x1="10" y1="-6" x2="10" y2="6" fill="none" stroke="#94a3b8" stroke-width="2" stroke-linecap="round"/><circle cx="16" cy="0" r="4" fill="#ffffff" stroke="#94a3b8" stroke-width="2"/></g><rect x="2613.4" y="308" width="117.4" height="16" rx="4" fill="rgba(248, 250, 252, 0.85)" stroke="#e2e8f0"/><text x="2672.1" y="319.5" text-anchor="middle" font-family='"Segoe UI", "Helvetica Neue", Arial, sans-serif' font-size="10" fill="#475569">one x zero-or-one</text>
<path d="M110,114 L110,408" fill="none" stroke="#94a3b8" stroke-width="2" stroke-dasharray="7 5"/><g transform="translate(110 104) rotate(90)"><line x1="10" y1="-6" x2="10" y2="6" fill="none" stroke="#94a3b8" stroke-width="2" stroke-linecap="round"/></g><g transform="translate(110 420) rotate(90)"><line x1="12" y1="-7" x2="0" y2="0" fill="none" stroke="#94a3b8" stroke-width="2" stroke-linecap="round"/><line x1="12" y1="7" x2="0" y2="0" fill="none" stroke="#94a3b8" stroke-width="2" stroke-linecap="round"/></g><rect x="24" y="308" width="74" height="16" rx="4" fill="rgba(248, 250, 252, 0.85)" stroke="#e2e8f0"/><text x="61" y="319.5" text-anchor="middle" font-family='"Segoe UI", "Helvetica Neue", Arial, sans-serif' font-size="10" fill="#475569">one x many</text>
<path d="M138.23529411764707,114 L138.23529411764707,246 L810.2,246 L810.2,398" fill="none" stroke="#94a3b8" stroke-width="2" stroke-dasharray="7 5"/><g transform="translate(138.23529411764707 104) rotate(90)"><line x1="10" y1="-6" x2="10" y2="6" fill="none" stroke="#94a3b8" stroke-width="2" stroke-linecap="round"/></g><g transform="translate(810.2 420) rotate(90)"><line x1="12" y1="-7" x2="0" y2="0" fill="none" stroke="#94a3b8" stroke-width="2" stroke-linecap="round"/><line x1="12" y1="7" x2="0" y2="0" fill="none" stroke="#94a3b8" stroke-width="2" stroke-linecap="round"/><circle cx="18" cy="0" r="4" fill="#ffffff" stroke="#94a3b8" stroke-width="2"/></g><rect x="674.6" y="308" width="123.60000000000001" height="16" rx="4" fill="rgba(248, 250, 252, 0.85)" stroke="#e2e8f0"/><text x="736.4" y="319.5" text-anchor="middle" font-family='"Segoe UI", "Helvetica Neue", Arial, sans-serif' font-size="10" fill="#475569">one x zero-or-many</text>
<path d="M180.58823529411768,124 L180.58823529411768,186 L1846.4,186 L1846.4,410" fill="none" stroke="#94a3b8" stroke-width="2" stroke-dasharray="7 5"/><g transform="translate(180.58823529411768 104) rotate(90)"><line x1="10" y1="-6" x2="10" y2="6" fill="none" stroke="#94a3b8" stroke-width="2" stroke-linecap="round"/><circle cx="16" cy="0" r="4" fill="#ffffff" stroke="#94a3b8" stroke-width="2"/></g><g transform="translate(1846.4 420) rotate(90)"><line x1="10" y1="-6" x2="10" y2="6" fill="none" stroke="#94a3b8" stroke-width="2" stroke-linecap="round"/></g><rect x="1717" y="308" width="117.4" height="16" rx="4" fill="rgba(248, 250, 252, 0.85)" stroke="#e2e8f0"/><text x="1775.7" y="319.5" text-anchor="middle" font-family='"Segoe UI", "Helvetica Neue", Arial, sans-serif' font-size="10" fill="#475569">zero-or-one x one</text>
<path d="M187.64705882352945,124 L187.64705882352945,176 L2036.4,176 L2036.4,400" fill="none" stroke="#94a3b8" stroke-width="2" stroke-dasharray="7 5"/><g transform="translate(187.64705882352945 104) rotate(90)"><line x1="10" y1="-6" x2="10" y2="6" fill="none" stroke="#94a3b8" stroke-width="2" stroke-linecap="round"/><circle cx="16" cy="0" r="4" fill="#ffffff" stroke="#94a3b8" stroke-width="2"/></g><g transform="translate(2036.4 420) rotate(90)"><line x1="10" y1="-6" x2="10" y2="6" fill="none" stroke="#94a3b8" stroke-width="2" stroke-linecap="round"/><circle cx="16" cy="0" r="4" fill="#ffffff" stroke="#94a3b8" stroke-width="2"/></g><rect x="1857.4" y="308" width="167" height="16" rx="4" fill="rgba(248, 250, 252, 0.85)" stroke="#e2e8f0"/><text x="1940.9" y="319.5" text-anchor="middle" font-family='"Segoe UI", "Helvetica Neue", Arial, sans-serif' font-size="10" fill="#475569">zero-or-one x zero-or-one</text>
<path d="M173.5294117647059,124 L173.5294117647059,196 L1678.4,196 L1678.4,408" fill="none" stroke="#94a3b8" stroke-width="2" stroke-dasharray="7 5"/><g transform="translate(173.5294117647059 104) rotate(90)"><line x1="10" y1="-6" x2="10" y2="6" fill="none" stroke="#94a3b8" stroke-width="2" stroke-linecap="round"/><circle cx="16" cy="0" r="4" fill="#ffffff" stroke="#94a3b8" stroke-width="2"/></g><g transform="translate(1678.4 420) rotate(90)"><line x1="12" y1="-7" x2="0" y2="0" fill="none" stroke="#94a3b8" stroke-width="2" stroke-linecap="round"/><line x1="12" y1="7" x2="0" y2="0" fill="none" stroke="#94a3b8" stroke-width="2" stroke-linecap="round"/></g><rect x="1542.8000000000002" y="308" width="123.60000000000001" height="16" rx="4" fill="rgba(248, 250, 252, 0.85)" stroke="#e2e8f0"/><text x="1604.6000000000001" y="319.5" text-anchor="middle" font-family='"Segoe UI", "Helvetica Neue", Arial, sans-serif' font-size="10" fill="#475569">zero-or-one x many</text>
<path d="M124.11764705882352,124 L124.11764705882352,266 L474.20000000000005,266 L474.20000000000005,398" fill="none" stroke="#94a3b8" stroke-width="2" stroke-dasharray="7 5"/><g transform="translate(124.11764705882352 104) rotate(90)"><line x1="10" y1="-6" x2="10" y2="6" fill="none" stroke="#94a3b8" stroke-width="2" stroke-linecap="round"/><circle cx="16" cy="0" r="4" fill="#ffffff" stroke="#94a3b8" stroke-width="2"/></g><g transform="translate(474.20000000000005 420) rotate(90)"><line x1="12" y1="-7" x2="0" y2="0" fill="none" stroke="#94a3b8" stroke-width="2" stroke-linecap="round"/><line x1="12" y1="7" x2="0" y2="0" fill="none" stroke="#94a3b8" stroke-width="2" stroke-linecap="round"/><circle cx="18" cy="0" r="4" fill="#ffffff" stroke="#94a3b8" stroke-width="2"/></g><rect x="289" y="308" width="173.20000000000002" height="16" rx="4" fill="rgba(248, 250, 252, 0.85)" stroke="#e2e8f0"/><text x="375.6" y="319.5" text-anchor="middle" font-family='"Segoe UI", "Helvetica Neue", Arial, sans-serif' font-size="10" fill="#475569">zero-or-one x zero-or-many</text>
<path d="M152.3529411764706,116 L152.3529411764706,226 L1146.2,226 L1146.2,410" fill="none" stroke="#94a3b8" stroke-width="2" stroke-dasharray="7 5"/><g transform="translate(152.3529411764706 104) rotate(90)"><line x1="12" y1="-7" x2="0" y2="0" fill="none" stroke="#94a3b8" stroke-width="2" stroke-linecap="round"/><line x1="12" y1="7" x2="0" y2="0" fill="none" stroke="#94a3b8" stroke-width="2" stroke-linecap="round"/></g><g transform="translate(1146.2 420) rotate(90)"><line x1="10" y1="-6" x2="10" y2="6" fill="none" stroke="#94a3b8" stroke-width="2" stroke-linecap="round"/></g><rect x="1060.2" y="308" width="74" height="16" rx="4" fill="rgba(248, 250, 252, 0.85)" stroke="#e2e8f0"/><text x="1097.2" y="319.5" text-anchor="middle" font-family='"Segoe UI", "Helvetica Neue", Arial, sans-serif' font-size="10" fill="#475569">many x one</text>
<path d="M131.1764705882353,116 L131.1764705882353,256 L642.2,256 L642.2,400" fill="none" stroke="#94a3b8" stroke-width="2" stroke-dasharray="7 5"/><g transform="translate(131.1764705882353 104) rotate(90)"><line x1="12" y1="-7" x2="0" y2="0" fill="none" stroke="#94a3b8" stroke-width="2" stroke-linecap="round"/><line x1="12" y1="7" x2="0" y2="0" fill="none" stroke="#94a3b8" stroke-width="2" stroke-linecap="round"/></g><g transform="translate(642.2 420) rotate(90)"><line x1="10" y1="-6" x2="10" y2="6" fill="none" stroke="#94a3b8" stroke-width="2" stroke-linecap="round"/><circle cx="16" cy="0" r="4" fill="#ffffff" stroke="#94a3b8" stroke-width="2"/></g><rect x="506.59999999999997" y="308" width="123.60000000000001" height="16" rx="4" fill="rgba(248, 250, 252, 0.85)" stroke="#e2e8f0"/><text x="568.4" y="319.5" text-anchor="middle" font-family='"Segoe UI", "Helvetica Neue", Arial, sans-serif' font-size="10" fill="#475569">many x zero-or-one</text>
<path d="M117.05882352941177,116 L117.05882352941177,276 L278,276 L278,408" fill="none" stroke="#94a3b8" stroke-width="2" stroke-dasharray="7 5"/><g transform="translate(117.05882352941177 104) rotate(90)"><line x1="12" y1="-7" x2="0" y2="0" fill="none" stroke="#94a3b8" stroke-width="2" stroke-linecap="round"/><line x1="12" y1="7" x2="0" y2="0" fill="none" stroke="#94a3b8" stroke-width="2" stroke-linecap="round"/></g><g transform="translate(278 420) rotate(90)"><line x1="12" y1="-7" x2="0" y2="0" fill="none" stroke="#94a3b8" stroke-width="2" stroke-linecap="round"/><line x1="12" y1="7" x2="0" y2="0" fill="none" stroke="#94a3b8" stroke-width="2" stroke-linecap="round"/></g><rect x="185.8" y="308" width="80.2" height="16" rx="4" fill="rgba(248, 250, 252, 0.85)" stroke="#e2e8f0"/><text x="225.9" y="319.5" text-anchor="middle" font-family='"Segoe UI", "Helvetica Neue", Arial, sans-serif' font-size="10" fill="#475569">many x many</text>
<path d="M166.47058823529414,116 L166.47058823529414,206 L1510.4,206 L1510.4,398" fill="none" stroke="#94a3b8" stroke-width="2" stroke-dasharray="7 5"/><g transform="translate(166.47058823529414 104) rotate(90)"><line x1="12" y1="-7" x2="0" y2="0" fill="none" stroke="#94a3b8" stroke-width="2" stroke-linecap="round"/><line x1="12" y1="7" x2="0" y2="0" fill="none" stroke="#94a3b8" stroke-width="2" stroke-linecap="round"/></g><g transform="translate(1510.4 420) rotate(90)"><line x1="12" y1="-7" x2="0" y2="0" fill="none" stroke="#94a3b8" stroke-width="2" stroke-linecap="round"/><line x1="12" y1="7" x2="0" y2="0" fill="none" stroke="#94a3b8" stroke-width="2" stroke-linecap="round"/><circle cx="18" cy="0" r="4" fill="#ffffff" stroke="#94a3b8" stroke-width="2"/></g><rect x="1368.6000000000001" y="308" width="129.8" height="16" rx="4" fill="rgba(248, 250, 252, 0.85)" stroke="#e2e8f0"/><text x="1433.5000000000002" y="319.5" text-anchor="middle" font-family='"Segoe UI", "Helvetica Neue", Arial, sans-serif' font-size="10" fill="#475569">many x zero-or-many</text>
<path d="M145.29411764705884,126 L145.29411764705884,236 L978.2,236 L978.2,410" fill="none" stroke="#94a3b8" stroke-width="2" stroke-dasharray="7 5"/><g transform="translate(145.29411764705884 104) rotate(90)"><line x1="12" y1="-7" x2="0" y2="0" fill="none" stroke="#94a3b8" stroke-width="2" stroke-linecap="round"/><line x1="12" y1="7" x2="0" y2="0" fill="none" stroke="#94a3b8" stroke-width="2" stroke-linecap="round"/><circle cx="18" cy="0" r="4" fill="#ffffff" stroke="#94a3b8" stroke-width="2"/></g><g transform="translate(978.2 420) rotate(90)"><line x1="10" y1="-6" x2="10" y2="6" fill="none" stroke="#94a3b8" stroke-width="2" stroke-linecap="round"/></g><rect x="842.6" y="308" width="123.60000000000001" height="16" rx="4" fill="rgba(248, 250, 252, 0.85)" stroke="#e2e8f0"/><text x="904.4" y="319.5" text-anchor="middle" font-family='"Segoe UI", "Helvetica Neue", Arial, sans-serif' font-size="10" fill="#475569">zero-or-many x one</text>
<path d="M159.41176470588238,126 L159.41176470588238,216 L1342.4,216 L1342.4,400" fill="none" stroke="#94a3b8" stroke-width="2" stroke-dasharray="7 5"/><g transform="translate(159.41176470588238 104) rotate(90)"><line x1="12" y1="-7" x2="0" y2="0" fill="none" stroke="#94a3b8" stroke-width="2" stroke-linecap="round"/><line x1="12" y1="7" x2="0" y2="0" fill="none" stroke="#94a3b8" stroke-width="2" stroke-linecap="round"/><circle cx="18" cy="0" r="4" fill="#ffffff" stroke="#94a3b8" stroke-width="2"/></g><g transform="translate(1342.4 420) rotate(90)"><line x1="10" y1="-6" x2="10" y2="6" fill="none" stroke="#94a3b8" stroke-width="2" stroke-linecap="round"/><circle cx="16" cy="0" r="4" fill="#ffffff" stroke="#94a3b8" stroke-width="2"/></g><rect x="1157.2" y="308" width="173.20000000000002" height="16" rx="4" fill="rgba(248, 250, 252, 0.85)" stroke="#e2e8f0"/><text x="1243.8" y="319.5" text-anchor="middle" font-family='"Segoe UI", "Helvetica Neue", Arial, sans-serif' font-size="10" fill="#475569">zero-or-many x zero-or-one</text>
<path d="M194.70588235294122,126 L194.70588235294122,166 L2204.4,166 L2204.4,408" fill="none" stroke="#94a3b8" stroke-width="2" stroke-dasharray="7 5"/><g transform="translate(194.70588235294122 104) rotate(90)"><line x1="12" y1="-7" x2="0" y2="0" fill="none" stroke="#94a3b8" stroke-width="2" stroke-linecap="round"/><line x1="12" y1="7" x2="0" y2="0" fill="none" stroke="#94a3b8" stroke-width="2" stroke-linecap="round"/><circle cx="18" cy="0" r="4" fill="#ffffff" stroke="#94a3b8" stroke-width="2"/></g><g transform="translate(2204.4 420) rotate(90)"><line x1="12" y1="-7" x2="0" y2="0" fill="none" stroke="#94a3b8" stroke-width="2" stroke-linecap="round"/><line x1="12" y1="7" x2="0" y2="0" fill="none" stroke="#94a3b8" stroke-width="2" stroke-linecap="round"/></g><rect x="2062.6000000000004" y="308" width="129.8" height="16" rx="4" fill="rgba(248, 250, 252, 0.85)" stroke="#e2e8f0"/><text x="2127.5000000000005" y="319.5" text-anchor="middle" font-family='"Segoe UI", "Helvetica Neue", Arial, sans-serif' font-size="10" fill="#475569">zero-or-many x many</text>
<path d="M201.76470588235298,126 L201.76470588235298,156 L2406.8,156 L2406.8,398" fill="none" stroke="#94a3b8" stroke-width="2" stroke-dasharray="7 5"/><g transform="translate(201.76470588235298 104) rotate(90)"><line x1="12" y1="-7" x2="0" y2="0" fill="none" stroke="#94a3b8" stroke-width="2" stroke-linecap="round"/><line x1="12" y1="7" x2="0" y2="0" fill="none" stroke="#94a3b8" stroke-width="2" stroke-linecap="round"/><circle cx="18" cy="0" r="4" fill="#ffffff" stroke="#94a3b8" stroke-width="2"/></g><g transform="translate(2406.8 420) rotate(90)"><line x1="12" y1="-7" x2="0" y2="0" fill="none" stroke="#94a3b8" stroke-width="2" stroke-linecap="round"/><line x1="12" y1="7" x2="0" y2="0" fill="none" stroke="#94a3b8" stroke-width="2" stroke-linecap="round"/><circle cx="18" cy="0" r="4" fill="#ffffff" stroke="#94a3b8" stroke-width="2"/></g><rect x="2215.4" y="308" width="179.4" height="16" rx="4" fill="rgba(248, 250, 252, 0.85)" stroke="#e2e8f0"/><text x="2305.1" y="319.5" text-anchor="middle" font-family='"Segoe UI", "Helvetica Neue", Arial, sans-serif' font-size="10" fill="#475569">zero-or-many x zero-or-many</text>
<g transform="translate(102.94117647058823, 24)">
<rect x="0" y="0" width="120" height="80" rx="10" fill="#ffffff" stroke="#e2e8f0" stroke-width="1.5" filter="url(#card-shadow)"/>
<text x="60" y="25.25" text-anchor="middle" font-family='"Segoe UI", "Helvetica Neue", Arial, sans-serif' font-size="15" font-weight="600" fill="#0f172a">Hub</text>
<line x1="0" y1="40" x2="120" y2="40" stroke="#e2e8f0" stroke-width="1"/>
<rect x="12" y="53" width="22" height="14" rx="4" fill="rgba(248, 250, 252, 0.85)" stroke="#e2e8f0"/>
<text x="23" y="63.5" text-anchor="middle" font-family='"Segoe UI", "Helvetica Neue", Arial, sans-serif' font-size="10" fill="#475569">PK</text>
<text x="40" y="64.2" font-family='"Segoe UI", "Helvetica Neue", Arial, sans-serif' font-size="12" text-decoration="underline" fill="#0f172a">id: UUID</text>
</g>
<g transform="translate(2514.8, 420)">
<rect x="0" y="0" width="120" height="40" rx="10" fill="#ffffff" stroke="#e2e8f0" stroke-width="1.5" filter="url(#card-shadow)"/>
<text x="60" y="25.25" text-anchor="middle" font-family='"Segoe UI", "Helvetica Neue", Arial, sans-serif' font-size="15" font-weight="600" fill="#0f172a">Leaf 0</text>
</g>
<g transform="translate(2682.8, 420)">
<rect x="0" y="0" width="120" height="40" rx="10" fill="#ffffff" stroke="#e2e8f0" stroke-width="1.5" filter="url(#card-shadow)"/>
<text x="60" y="25.25" text-anchor="middle" font-family='"Segoe UI", "Helvetica Neue", Arial, sans-serif' font-size="15" font-weight="600" fill="#0f172a">Leaf 1</text>
</g>
<g transform="translate(50, 420)">
<rect x="0" y="0" width="120" height="40" rx="10" fill="#ffffff" stroke="#e2e8f0" stroke-width="1.5" filter="url(#card-shadow)"/>
<text x="60" y="25.25" text-anchor="middle" font-family='"Segoe UI", "Helvetica Neue", Arial, sans-serif' font-size="15" font-weight="600" fill="#0f172a">Leaf 2</text>
</g>
<g transform="translate(750.2, 420)">
<rect x="0" y="0" width="120" height="40" rx="10" fill="#ffffff" stroke="#e2e8f0" stroke-width="1.5" filter="url(#card-shadow)"/>
<text x="60" y="25.25" text-anchor="middle" font-family='"Segoe UI", "Helvetica Neue", Arial, sans-serif' font-size="15" font-weight="600" fill="#0f172a">Leaf 3</text>
</g>
<g transform="translate(1786.4, 420)">
<rect x="0" y="0" width="120" height="40" rx="10" fill="#ffffff" stroke="#e2e8f0" stroke-width="1.5" filter="url(#card-shadow)"/>
<text x="60" y="25.25" text-anchor="middle" font-family='"Segoe UI", "Helvetica Neue", Arial, sans-serif' font-size="15" font-weight="600" fill="#0f172a">Leaf 4</text>
</g>
<g transform="translate(1976.4, 420)">
<rect x="0" y="0" width="120" height="40" rx="10" fill="#ffffff" stroke="#e2e8f0" stroke-width="1.5" filter="url(#card-shadow)"/>
<text x="60" y="25.25" text-anchor="middle" font-family='"Segoe UI", "Helvetica Neue", Arial, sans-serif' font-size="15" font-weight="600" fill="#0f172a">Leaf 5</text>
</g>
<g transform="translate(1618.4, 420)">
<rect x="0" y="0" width="120" height="40" rx="10" fill="#ffffff" stroke="#e2e8f0" stroke-width="1.5" filter="url(#card-shadow)"/>
<text x="60" y="25.25" text-anchor="middle" font-family='"Segoe UI", "Helvetica Neue", Arial, sans-serif' font-size="15" font-weight="600" fill="#0f172a">Leaf 6</text>
</g>
<g transform="translate(414.20000000000005, 420)">
<rect x="0" y="0" width="120" height="40" rx="10" fill="#ffffff" stroke="#e2e8f0" stroke-width="1.5" filter="url(#card-shadow)"/>
<text x="60" y="25.25" text-anchor="middle" font-family='"Segoe UI", "Helvetica Neue", Arial, sans-serif' font-size="15" font-weight="600" fill="#0f172a">Leaf 7</text>
</g>
<g transform="translate(1086.2, 420)">
<rect x="0" y="0" width="120" height="40" rx="10" fill="#ffffff" stroke="#e2e8f0" stroke-width="1.5" filter="url(#card-shadow)"/>
<text x="60" y="25.25" text-anchor="middle" font-family='"Segoe UI", "Helvetica Neue", Arial, sans-serif' font-size="15" font-weight="600" fill="#0f172a">Leaf 8</text>
</g>
<g transform="translate(582.2, 420)">
<rect x="0" y="0" width="120" height="40" rx="10" fill="#ffffff" stroke="#e2e8f0" stroke-width="1.5" filter="url(#card-shadow)"/>
<text x="60" y="25.25" text-anchor="middle" font-family='"Segoe UI", "Helvetica Neue", Arial, sans-serif' font-size="15" font-weight="600" fill="#0f172a">Leaf 9</text>
</g>
<g transform="translate(218, 420)">
<rect x="0" y="0" width="120" height="40" rx="10" fill="#ffffff" stroke="#e2e8f0" stroke-width="1.5" filter="url(#card-shadow)"/>
<text x="60" y="25.25" text-anchor="middle" font-family='"Segoe UI", "Helvetica Neue", Arial, sans-serif' font-size="15" font-weight="600" fill="#0f172a">Leaf 10</text>
</g>
<g transform="translate(1450.4, 420)">
<rect x="0" y="0" width="120" height="40" rx="10" fill="#ffffff" stroke="#e2e8f0" stroke-width="1.5" filter="url(#card-shadow)"/>
<text x="60" y="25.25" text-anchor="middle" font-family='"Segoe UI", "Helvetica Neue", Arial, sans-serif' font-size="15" font-weight="600" fill="#0f172a">Leaf 11</text>
</g>
<g transform="translate(918.2, 420)">
<rect x="0" y="0" width="120" height="40" rx="10" fill="#ffffff" stroke="#e2e8f0" stroke-width="1.5" filter="url(#card-shadow)"/>
<text x="60" y="25.25" text-anchor="middle" font-family='"Segoe UI", "Helvetica Neue", Arial, sans-serif' font-size="15" font-weight="600" fill="#0f172a">Leaf 12</text>
</g>
<g transform="translate(1282.4, 420)">
<rect x="0" y="0" width="120" height="40" rx="10" fill="#ffffff" stroke="#e2e8f0" stroke-width="1.5" filter="url(#card-shadow)"/>
<text x="60" y="25.25" text-anchor="middle" font-family='"Segoe UI", "Helvetica Neue", Arial, sans-serif' font-size="15" font-weight="600" fill="#0f172a">Leaf 13</text>
</g>
<g transform="translate(2144.4, 420)">
<rect x="0" y="0" width="120" height="40" rx="10" fill="#ffffff" stroke="#e2e8f0" stroke-width="1.5" filter="url(#card-shadow)"/>
<text x="60" y="25.25" text-anchor="middle" font-family='"Segoe UI", "Helvetica Neue", Arial, sans-serif' font-size="15" font-weight="600" fill="#0f172a">Leaf 14</text>
</g>
<g transform="translate(2346.8, 420)">
<rect x="0" y="0" width="120" height="40" rx="10" fill="#ffffff" stroke="#e2e8f0" stroke-width="1.5" filter="url(#card-shadow)"/>
<text x="60" y="25.25" text-anchor="middle" font-family='"Segoe UI", "Helvetica Neue", Arial, sans-serif' font-size="15" font-weight="600" fill="#0f172a">Leaf 15</text>
</g>
</g>
</svg>